<svg width="32" height="32" viewBox="0 0 32 32" fill="none" xmlns="http://www.w3.org/2000/svg">
    <path d="M17.5022 15.5022V27.0039C17.5022 27.4018 17.3441 27.7834 17.0628 28.0647C16.7814 28.3461 16.3999 28.5041 16.002 28.5041C15.6041 28.5041 15.2225 28.3461 14.9412 28.0647C14.6598 27.7834 14.5018 27.4018 14.5018 27.0039V15.5022C14.5018 15.1044 14.6598 14.7228 14.9412 14.4414C15.2225 14.1601 15.6041 14.002 16.002 14.002C16.3999 14.002 16.7814 14.1601 17.0628 14.4414C17.3441 14.7228 17.5022 15.1044 17.5022 15.5022ZM25.0033 24.0035C24.6054 24.0035 24.2238 24.1615 23.9425 24.4429C23.6611 24.7242 23.5031 25.1058 23.5031 25.5037V27.0039C23.5031 27.4018 23.6611 27.7834 23.9425 28.0647C24.2238 28.3461 24.6054 28.5041 25.0033 28.5041C25.4012 28.5041 25.7828 28.3461 26.0641 28.0647C26.3454 27.7834 26.5035 27.4018 26.5035 27.0039V25.5037C26.5035 25.1058 26.3454 24.7242 26.0641 24.4429C25.7828 24.1615 25.4012 24.0035 25.0033 24.0035ZM28.0037 19.0028H26.5035V5.00071C26.5035 4.60282 26.3454 4.22124 26.0641 3.93989C25.7828 3.65855 25.4012 3.50049 25.0033 3.50049C24.6054 3.50049 24.2238 3.65855 23.9425 3.93989C23.6611 4.22124 23.5031 4.60282 23.5031 5.00071V19.0028H22.0028C21.605 19.0028 21.2234 19.1608 20.942 19.4422C20.6607 19.7235 20.5026 20.1051 20.5026 20.503C20.5026 20.9009 20.6607 21.2824 20.942 21.5638C21.2234 21.8451 21.605 22.0032 22.0028 22.0032H28.0037C28.4016 22.0032 28.7832 21.8451 29.0645 21.5638C29.3459 21.2824 29.5039 20.9009 29.5039 20.503C29.5039 20.1051 29.3459 19.7235 29.0645 19.4422C28.7832 19.1608 28.4016 19.0028 28.0037 19.0028ZM7.00066 20.0029C6.60277 20.0029 6.22119 20.161 5.93984 20.4423C5.6585 20.7236 5.50044 21.1052 5.50044 21.5031V27.0039C5.50044 27.4018 5.6585 27.7834 5.93984 28.0647C6.22119 28.3461 6.60277 28.5041 7.00066 28.5041C7.39854 28.5041 7.78013 28.3461 8.06147 28.0647C8.34282 27.7834 8.50088 27.4018 8.50088 27.0039V21.5031C8.50088 21.1052 8.34282 20.7236 8.06147 20.4423C7.78013 20.161 7.39854 20.0029 7.00066 20.0029ZM10.0011 15.0022H8.50088V5.00071C8.50088 4.60282 8.34282 4.22124 8.06147 3.93989C7.78013 3.65855 7.39854 3.50049 7.00066 3.50049C6.60277 3.50049 6.22119 3.65855 5.93984 3.93989C5.6585 4.22124 5.50044 4.60282 5.50044 5.00071V15.0022H4.00022C3.60234 15.0022 3.22075 15.1602 2.9394 15.4416C2.65806 15.7229 2.5 16.1045 2.5 16.5024C2.5 16.9003 2.65806 17.2819 2.9394 17.5632C3.22075 17.8445 3.60234 18.0026 4.00022 18.0026H10.0011C10.399 18.0026 10.7806 17.8445 11.0619 17.5632C11.3433 17.2819 11.5013 16.9003 11.5013 16.5024C11.5013 16.1045 11.3433 15.7229 11.0619 15.4416C10.7806 15.1602 10.399 15.0022 10.0011 15.0022ZM19.0024 9.00129H17.5022V5.00071C17.5022 4.60282 17.3441 4.22124 17.0628 3.93989C16.7814 3.65855 16.3999 3.50049 16.002 3.50049C15.6041 3.50049 15.2225 3.65855 14.9412 3.93989C14.6598 4.22124 14.5018 4.60282 14.5018 5.00071V9.00129H13.0015C12.6037 9.00129 12.2221 9.15935 11.9407 9.4407C11.6594 9.72204 11.5013 10.1036 11.5013 10.5015C11.5013 10.8994 11.6594 11.281 11.9407 11.5623C12.2221 11.8437 12.6037 12.0017 13.0015 12.0017H19.0024C19.4003 12.0017 19.7819 11.8437 20.0632 11.5623C20.3446 11.281 20.5026 10.8994 20.5026 10.5015C20.5026 10.1036 20.3446 9.72204 20.0632 9.4407C19.7819 9.15935 19.4003 9.00129 19.0024 9.00129Z" fill="#B08951"/>
</svg>
