<svg width="21" height="22" viewBox="0 0 21 22" fill="none" xmlns="http://www.w3.org/2000/svg">
    <path d="M17.5653 4.38311L16.2217 5.37721L10.5013 9.40333L4.78086 5.33745L3.43734 4.34334C3.12083 4.09536 2.73446 3.94077 2.32609 3.89873C1.91773 3.85669 1.50531 3.92904 1.13994 4.10683C0.774562 4.28461 0.472289 4.56002 0.270566 4.89892C0.0688428 5.23782 -0.0234665 5.62533 0.00507429 6.01344V17.5351C0.00507429 17.8937 0.15547 18.2376 0.423176 18.4911C0.690881 18.7446 1.05397 18.8871 1.43256 18.8871H4.78086V11.2126L10.5013 15.2785L16.2217 11.2126V18.8871H19.57C19.9486 18.8871 20.3117 18.7446 20.5794 18.4911C20.8471 18.2376 20.9975 17.8937 20.9975 17.5351V6.01344C21.0172 5.62868 20.9185 5.24679 20.7133 4.91418C20.5082 4.58157 20.2054 4.31257 19.8419 4.13988C19.4783 3.96719 19.0696 3.89824 18.6654 3.94142C18.2613 3.9846 17.8791 4.13805 17.5653 4.38311Z" fill="white"/>
</svg>
