<svg width="21" height="22" viewBox="0 0 21 22" fill="none" xmlns="http://www.w3.org/2000/svg">
    <g clip-path="url(#clip0_578_482)">
        <path d="M14.44 7.43674C14.8392 7.43674 15.228 7.46744 15.6067 7.51861C14.9108 4.47914 11.7178 2.17651 7.8801 2.17651C3.5307 2.17651 0 5.12388 0 8.75691C0 10.8549 1.1769 12.7072 3.00877 13.9148L1.97514 15.9923L4.7997 14.7744C5.4035 14.9894 6.038 15.1633 6.71344 15.2554C6.62133 14.8563 6.57016 14.447 6.57016 14.0171C6.55993 10.3943 10.0906 7.43674 14.44 7.43674ZM10.5 5.13411C10.629 5.13411 10.7568 5.15952 10.8759 5.2089C10.9951 5.25827 11.1035 5.33064 11.1947 5.42186C11.2859 5.51309 11.3583 5.6214 11.4076 5.7406C11.457 5.85979 11.4824 5.98755 11.4824 6.11656C11.4824 6.24558 11.457 6.37334 11.4076 6.49253C11.3583 6.61173 11.2859 6.72004 11.1947 6.81126C11.1035 6.90249 10.9951 6.97486 10.8759 7.02423C10.7568 7.07361 10.629 7.09902 10.5 7.09902C10.2394 7.09902 9.98953 6.99551 9.80528 6.81126C9.62103 6.62702 9.51753 6.37713 9.51753 6.11656C9.51753 5.856 9.62103 5.60611 9.80528 5.42186C9.98953 5.23762 10.2394 5.13411 10.5 5.13411ZM5.24999 7.10925C4.98943 7.10925 4.73954 7.00575 4.55529 6.8215C4.37104 6.63725 4.26754 6.38736 4.26754 6.1268C4.26754 5.86624 4.37104 5.61634 4.55529 5.4321C4.73954 5.24785 4.98943 5.14434 5.24999 5.14434C5.51055 5.14434 5.76044 5.24785 5.94469 5.4321C6.12894 5.61634 6.23244 5.86624 6.23244 6.1268C6.23244 6.38736 6.12894 6.63725 5.94469 6.8215C5.76044 7.00575 5.51055 7.10925 5.24999 7.10925Z" fill="white"/>
        <path d="M21.0007 14.0172C21.0007 11.1108 18.0636 8.75696 14.4408 8.75696C10.818 8.75696 7.88086 11.1108 7.88086 14.0172C7.88086 16.9236 10.818 19.2774 14.4408 19.2774C15.0344 19.2774 15.6075 19.1955 16.1498 19.0727L19.6908 20.5976L18.4627 18.1414C19.9978 17.1795 21.0007 15.7058 21.0007 14.0172ZM12.4656 13.6897C12.2713 13.6897 12.0814 13.6321 11.9198 13.5241C11.7583 13.4162 11.6323 13.2627 11.558 13.0832C11.4836 12.9037 11.4642 12.7062 11.5021 12.5156C11.54 12.325 11.6335 12.1499 11.7709 12.0125C11.9083 11.8751 12.0834 11.7816 12.274 11.7437C12.4646 11.7058 12.6621 11.7252 12.8416 11.7996C13.0211 11.8739 13.1746 11.9999 13.2825 12.1614C13.3905 12.323 13.4481 12.5129 13.4481 12.7072C13.4583 13.2496 13.008 13.6897 12.4656 13.6897ZM16.4057 13.6897C16.1451 13.6897 15.8952 13.5862 15.711 13.4019C15.5268 13.2177 15.4232 12.9678 15.4232 12.7072C15.4232 12.4467 15.5268 12.1968 15.711 12.0125C15.8952 11.8283 16.1451 11.7248 16.4057 11.7248C16.6663 11.7248 16.9162 11.8283 17.1004 12.0125C17.2846 12.1968 17.3882 12.4467 17.3882 12.7072C17.3882 12.9678 17.2846 13.2177 17.1004 13.4019C16.9162 13.5862 16.6663 13.6897 16.4057 13.6897Z" fill="white"/>
    </g>
    <defs>
        <clipPath id="clip0_578_482">
            <rect width="21" height="21" fill="white" transform="translate(0 0.887085)"/>
        </clipPath>
    </defs>
</svg>
