<svg width="21" height="22" viewBox="0 0 21 22" fill="none" xmlns="http://www.w3.org/2000/svg">
    <path fill-rule="evenodd" clip-rule="evenodd" d="M2.08891 2.88708H5.08198C5.20371 2.88708 5.32254 2.92447 5.42263 2.99424C5.52271 3.06402 5.59929 3.16287 5.64213 3.27761L6.80393 6.38733C6.84223 6.49017 6.85188 6.60159 6.83186 6.70956L6.24937 9.85303C6.96512 11.5469 8.14687 12.6855 10.1058 13.7068L13.1898 13.1042C13.2994 13.0829 13.4128 13.0929 13.517 13.1331L16.6146 14.3224C16.7278 14.3658 16.8253 14.4428 16.8941 14.5433C16.9629 14.6437 16.9999 14.7628 17 14.8848V17.7647C17 19.0713 15.8574 20.1312 14.52 19.8379C12.0839 19.3043 7.56996 17.9472 4.40852 14.7635C1.37954 11.714 0.364565 7.50185 0.0238453 5.2254C-0.17165 3.92527 0.863277 2.88708 2.08891 2.88708Z" fill="white"/>
</svg>
