<svg width="17" height="16" viewBox="0 0 17 16" fill="none" xmlns="http://www.w3.org/2000/svg">
    <path d="M15.15 15.875L9.6375 10.3625C9.2 10.7125 8.69687 10.9896 8.12812 11.1938C7.55937 11.3979 6.95417 11.5 6.3125 11.5C4.72292 11.5 3.3776 10.9495 2.27656 9.84844C1.17552 8.7474 0.625 7.40208 0.625 5.8125C0.625 4.22292 1.17552 2.8776 2.27656 1.77656C3.3776 0.675521 4.72292 0.125 6.3125 0.125C7.90208 0.125 9.2474 0.675521 10.3484 1.77656C11.4495 2.8776 12 4.22292 12 5.8125C12 6.45417 11.8979 7.05937 11.6938 7.62812C11.4896 8.19687 11.2125 8.7 10.8625 9.1375L16.375 14.65L15.15 15.875ZM6.3125 9.75C7.40625 9.75 8.33594 9.36719 9.10156 8.60156C9.86719 7.83594 10.25 6.90625 10.25 5.8125C10.25 4.71875 9.86719 3.78906 9.10156 3.02344C8.33594 2.25781 7.40625 1.875 6.3125 1.875C5.21875 1.875 4.28906 2.25781 3.52344 3.02344C2.75781 3.78906 2.375 4.71875 2.375 5.8125C2.375 6.90625 2.75781 7.83594 3.52344 8.60156C4.28906 9.36719 5.21875 9.75 6.3125 9.75Z" fill="black"/>
</svg>
