<svg width="21" height="22" viewBox="0 0 21 22" fill="none" xmlns="http://www.w3.org/2000/svg">
    <g clip-path="url(#clip0_578_476)">
        <path d="M10.5 0.887085C16.2992 0.887085 21 5.58793 21 11.3871C21 17.1862 16.2992 21.8871 10.5 21.8871C8.6444 21.8903 6.82142 21.3992 5.21851 20.4643L0.00421623 21.8871L1.42382 16.6707C0.488222 15.0673 -0.00323571 13.2435 1.60321e-05 11.3871C1.60321e-05 5.58793 4.70086 0.887085 10.5 0.887085ZM6.92161 6.45208L6.71161 6.46048C6.57584 6.46984 6.44318 6.5055 6.32101 6.56548C6.20717 6.63007 6.1032 6.71069 6.01231 6.80488C5.88631 6.92353 5.81491 7.02643 5.73826 7.12618C5.34989 7.63113 5.14078 8.25106 5.14396 8.88808C5.14606 9.40258 5.28046 9.90343 5.49046 10.3717C5.91991 11.3188 6.62656 12.3216 7.55896 13.2508C7.78366 13.4745 8.00416 13.6992 8.24146 13.9081C9.40006 14.9281 10.7807 15.6637 12.2735 16.0564L12.8699 16.1478C13.0641 16.1583 13.2584 16.1436 13.4537 16.1341C13.7594 16.118 14.0579 16.0352 14.3283 15.8916C14.4657 15.8205 14.5999 15.7435 14.7305 15.6606C14.7305 15.6606 14.7749 15.6305 14.8617 15.5661C15.0035 15.4611 15.0906 15.3865 15.2082 15.2637C15.2964 15.1727 15.3699 15.067 15.4287 14.9466C15.5106 14.7754 15.5925 14.4489 15.6261 14.1769C15.6513 13.969 15.644 13.8556 15.6408 13.7853C15.6366 13.6729 15.5432 13.5564 15.4413 13.507L14.8302 13.233C14.8302 13.233 13.9167 12.835 13.3581 12.5809C13.2996 12.5555 13.237 12.5409 13.1733 12.5379C13.1015 12.5304 13.0288 12.5384 12.9604 12.5614C12.8919 12.5844 12.8291 12.6219 12.7764 12.6712C12.7712 12.6691 12.7008 12.729 11.9417 13.6488C11.8981 13.7073 11.8381 13.7516 11.7693 13.7759C11.7004 13.8002 11.6259 13.8035 11.5553 13.7853C11.4868 13.767 11.4198 13.7439 11.3547 13.716C11.2245 13.6614 11.1794 13.6404 11.0901 13.6026C10.4873 13.34 9.92927 12.9846 9.43636 12.5494C9.30406 12.4339 9.18121 12.3079 9.05521 12.1861C8.64215 11.7905 8.28215 11.343 7.98421 10.8547L7.92226 10.755C7.87844 10.6876 7.8425 10.6153 7.81516 10.5397C7.77526 10.3854 7.87921 10.2615 7.87921 10.2615C7.87921 10.2615 8.13436 9.98218 8.25301 9.83098C8.36851 9.68398 8.46616 9.54118 8.52916 9.43933C8.65306 9.23983 8.69191 9.03508 8.62681 8.87653C8.33281 8.15833 8.02901 7.44398 7.71541 6.73348C7.65346 6.59278 7.46971 6.49198 7.30276 6.47203C7.24606 6.46503 7.18936 6.45943 7.13266 6.45523C6.99168 6.44714 6.85031 6.44855 6.70951 6.45943L6.92161 6.45208Z" fill="white"/>
    </g>
    <defs>
        <clipPath id="clip0_578_476">
            <rect width="21" height="21" fill="white" transform="translate(0 0.887085)"/>
        </clipPath>
    </defs>
</svg>
