<svg width="15" height="15" viewBox="0 0 15 15" fill="none" xmlns="http://www.w3.org/2000/svg">
    <path d="M2.0225 14.1924L2.96247 12.8685C2.1946 12.2065 1.57236 11.3857 1.14871 10.459C0.725053 9.53221 0.5 8.52604 0.5 7.50662C0.5 5.62665 1.24136 3.82613 2.57852 2.50221C3.90244 1.17829 5.70297 0.423654 7.58293 0.423654C8.84066 0.423654 10.019 0.754634 11.0516 1.32392L11.9916 0L13.1567 0.807591L12.2167 2.13151C13.7127 3.42895 14.6792 5.34863 14.6792 7.49338C14.6792 9.37335 13.9378 11.1739 12.6006 12.4978C11.2767 13.8217 9.47615 14.5763 7.59619 14.5763C6.33846 14.5763 5.16018 14.2454 4.12753 13.6761L3.18755 15L2.0225 14.1924ZM7.58293 1.84025C6.08691 1.84025 4.64384 2.43601 3.57146 3.49515C2.51233 4.55428 1.91656 5.99735 1.91656 7.49338C1.91656 9.16152 2.61824 10.6443 3.78329 11.6902L10.2308 2.48896C9.42318 2.06531 8.50969 1.84025 7.59619 1.84025H7.58293ZM7.58293 13.1598C9.07896 13.1598 10.5221 12.564 11.5944 11.5049C12.6668 10.4457 13.2493 9.00265 13.2493 7.50662C13.2493 5.83848 12.5477 4.35569 11.3826 3.3098L4.9351 12.511C5.71621 12.9347 6.6165 13.1598 7.56972 13.1598H7.58293Z" fill="#B08951"/>
</svg>
