<svg width="15" height="16" viewBox="0 0 15 16" fill="none" xmlns="http://www.w3.org/2000/svg">
    <path d="M14.9581 1.04537C14.9581 0.886525 14.8787 0.754151 14.7729 0.635017C14.6671 0.529119 14.5216 0.462934 14.3629 0.449697C8.41143 0.10553 3.65024 1.89255 1.62673 5.2548C0.92578 6.40643 0.581917 7.74339 0.634819 9.08034C0.674496 10.3246 1.04481 11.5822 1.70608 12.8265L0.185156 14.3487C0.0661268 14.4679 0 14.6267 0 14.7856C0 14.9444 0.0661268 15.1165 0.185156 15.2224C0.304186 15.3415 0.462895 15.4077 0.621601 15.4077C0.780307 15.4077 0.952241 15.3415 1.05805 15.2224L2.57897 13.7001C3.82217 14.3752 5.0786 14.7326 6.32179 14.7723C6.41437 14.7723 6.49372 14.7723 6.5863 14.7723C7.84272 14.7723 9.08592 14.4282 10.1572 13.7663C13.5165 11.7278 15.3019 6.96239 14.9581 1.0189V1.04537ZM9.50915 12.7206C7.73693 13.7928 5.63407 13.8193 3.51799 12.7868L10.4349 5.86371C10.4349 5.86371 10.5407 5.73134 10.5672 5.66515C10.5936 5.59897 10.6201 5.5063 10.6201 5.42688C10.6201 5.34746 10.6068 5.26803 10.5672 5.18861C10.5407 5.10919 10.4878 5.043 10.4349 4.99005C10.382 4.9371 10.3027 4.88416 10.2365 4.85768C10.1572 4.83121 10.0778 4.80473 9.99849 4.80473C9.91913 4.80473 9.83979 4.81797 9.76044 4.85768C9.68108 4.88416 9.61494 4.9371 9.56204 4.99005L2.6451 11.9263C1.61351 9.82163 1.62674 7.70367 2.71123 5.92989C4.43055 3.0839 8.54368 1.52191 13.7413 1.70723C13.9265 6.92268 12.3659 11.0262 9.52237 12.747L9.50915 12.7206Z" fill="#B08951"/>
</svg>
