<svg width="11" height="16" viewBox="0 0 11 16" fill="none" xmlns="http://www.w3.org/2000/svg">
    <path d="M5.48104 0.407715L4.79258 1.17559C4.79258 1.17559 3.62754 2.49951 2.44926 4.20736C1.27097 5.92846 0 7.9673 0 9.93993C0 11.3962 0.582553 12.7864 1.60197 13.8058C2.63463 14.8384 4.02472 15.4077 5.46779 15.4077C6.91086 15.4077 8.31423 14.8252 9.33365 13.8058C10.3663 12.7731 10.9356 11.383 10.9356 9.93993C10.9356 7.9673 9.66461 5.91522 8.48632 4.20736C7.75817 3.14823 6.97707 2.14205 6.143 1.17559L5.45454 0.407715H5.48104ZM5.48104 3.26738C5.87822 3.74399 6.24892 4.12793 7.01679 5.24002C8.11565 6.84196 9.13503 8.89404 9.13503 9.93993C9.13503 11.9655 7.50664 13.5939 5.48104 13.5939C3.45545 13.5939 1.82701 11.9655 1.82701 9.93993C1.82701 8.8808 2.8332 6.84196 3.94529 5.24002C4.71316 4.12793 5.07063 3.73076 5.48104 3.26738Z" fill="#B08951"/>
</svg>
