<svg viewBox="0 0 900 108.84" fill="none" xmlns="http://www.w3.org/2000/svg">
    <defs>
        <style>
            .cls-1 {
            fill: #423b36;
            }
        </style>
    </defs>
    <g id="_Слой_1">
        <g>
            <path class="cls-1" d="M0,81.01v9.87c14.13,0,25.62-11.49,25.62-25.62v-8.59H0v9.87h15.7c-.65,8.09-7.45,14.47-15.7,14.47Z"/>
            <path class="cls-1" d="M16.14,38.7H0v9.87h25.54l.11-4.82c.33-18.24,15.46-33.09,33.68-33.09h38.83V.79h-38.83C37.41.79,18.97,17.41,16.14,38.7Z"/>
            <path class="cls-1" d="M106.58,10.65h47.32c-3.29,2.35-6.29,5.09-8.95,8.11h-38.37v9.87h31.49c-3.97,7.41-6.23,15.9-6.23,24.86v55.34h9.87v-55.34c0-9.25,2.96-17.85,7.98-24.86,2.72-3.79,6.03-7.15,9.82-9.87,7.04-5.11,15.7-8.11,25.04-8.11h15.89V.79h-93.86v9.87Z"/>
            <path class="cls-1" d="M33.77,43.45l-.2,5.11h43.13v-9.87h-32.06c2.28-5.92,7.98-10.06,14.69-10.06h38.83v-9.87h-38.83c-13.84,0-25.08,10.85-25.57,24.69Z"/>
            <path class="cls-1" d="M33.72,65.25C33.72,83.84,18.6,98.97,0,98.97v9.87c23.6,0,42.88-18.86,43.56-42.3h33.14v-9.87h-42.99v8.59Z"/>
            <rect class="cls-1" x="209.57" y=".8" width="9.87" height="108.04"/>
            <rect class="cls-1" x="227.53" y=".8" width="9.87" height="108.04"/>
            <path class="cls-1" d="M188.28,18.77c-9.89,0-18.9,3.73-25.72,9.87-7.85,7.06-12.81,17.28-12.81,28.66v51.55h9.87v-51.55c0-15.79,12.85-28.66,28.66-28.66h12.17v-9.87h-12.17Z"/>
            <path class="cls-1" d="M318.8,45.89c-2.14-.07-3.67-.61-4.58-1.62-.91-1.01-1.37-2.71-1.37-5.1v-13.85h.84c2.85,0,4.99.7,6.4,2.11,1.42,1.41,2.29,3.7,2.63,6.89h1.84V13.34h-1.84c-.33,3.17-1.21,5.45-2.63,6.86-1.42,1.41-3.55,2.11-6.4,2.11h-.84V4.11h5.68c4.04,0,6.93.72,8.7,2.16s2.91,3.95,3.44,7.54h1.84V1.14h-40.07v1.7c2.16.09,3.7.64,4.6,1.64s1.35,2.7,1.35,5.08v29.6c0,2.39-.45,4.09-1.35,5.1s-2.44,1.56-4.6,1.62v1.7h26.35v-1.7Z"/>
            <path class="cls-1" d="M362.26,45.89c-2.19-.11-3.72-.66-4.61-1.66-.89-.99-1.34-2.68-1.34-5.07V9.56c0-2.38.44-4.07,1.32-5.05.88-.98,2.42-1.53,4.63-1.64v-1.74h-26.35v1.7c2.16.09,3.7.64,4.6,1.64s1.35,2.7,1.35,5.08v29.6c0,2.39-.45,4.08-1.34,5.08-.89,1-2.43,1.55-4.62,1.64v1.7h26.35v-1.7Z"/>
            <path class="cls-1" d="M380.29,45.89c-2.19-.11-3.72-.66-4.62-1.66-.89-.99-1.34-2.68-1.34-5.07V10.8l30.2,36.79h5.22V9.56c0-2.38.45-4.08,1.36-5.08s2.44-1.55,4.6-1.64v-1.7h-15.05v1.74c2.21.11,3.75.66,4.63,1.64.88.98,1.32,2.67,1.32,5.05v18.56l-22.07-26.99h-19.3v1.7c2.16.09,3.7.64,4.6,1.64s1.35,2.7,1.35,5.08v29.6c0,2.39-.45,4.09-1.35,5.1s-2.44,1.56-4.6,1.62v1.7h15.05v-1.7Z"/>
            <path class="cls-1" d="M462.15,32.88h-1.91c-1.07,4.19-2.76,7.19-5.07,9s-5.62,2.71-9.95,2.71c-2.77,0-4.49-.25-5.18-.75s-1.04-1.88-1.04-4.13v-14.38h.57c2.63,0,4.58.74,5.85,2.21,1.27,1.47,2.07,3.96,2.41,7.46h1.74V12.67h-1.74c-.33,3.43-1.13,5.89-2.37,7.36-1.25,1.47-3.14,2.21-5.69,2.21h-.77V4.11h6.59c4.04,0,6.93.72,8.7,2.16s2.9,3.95,3.41,7.54h1.64V1.14h-40.74v1.7c2.16.09,3.7.64,4.6,1.64s1.35,2.7,1.35,5.08v29.6c0,2.39-.45,4.09-1.35,5.1s-2.44,1.56-4.6,1.62v1.7h40.87l2.68-14.72Z"/>
            <path class="cls-1" d="M486.62,48.76c5.31,0,9.61-1.43,12.93-4.3s4.97-6.57,4.97-11.12c0-1.89-.33-3.67-.99-5.33-.66-1.66-1.63-3.19-2.93-4.6-.85-.94-2.11-1.88-3.8-2.83-1.68-.95-4.64-2.31-8.88-4.1-.18-.07-.42-.17-.74-.3-5.91-2.45-8.86-4.93-8.86-7.43,0-1.72.7-3.11,2.11-4.16s3.27-1.59,5.59-1.59c3.7,0,6.93,1.11,9.68,3.33,2.75,2.22,4.45,5.1,5.1,8.64h1.57V.07h-1.84c-.09,1.23-.29,2.07-.6,2.52-.31.46-.85.69-1.6.69-.27,0-1.89-.55-4.88-1.64-2.99-1.09-5.85-1.64-8.6-1.64-5.06,0-9.21,1.39-12.46,4.18-3.24,2.79-4.87,6.32-4.87,10.6,0,1.34.2,2.62.6,3.83.4,1.22.99,2.36,1.77,3.43,1.76,2.39,5.27,4.69,10.53,6.92.94.4,1.64.7,2.11.9l.1.03c7.63,3.32,11.44,6.46,11.44,9.4,0,1.92-.81,3.48-2.43,4.7s-3.73,1.82-6.34,1.82c-4.06,0-7.65-1.33-10.77-4s-4.96-6.01-5.52-10.05h-1.74v16.92h1.87c.09-.98.38-1.74.89-2.28.5-.53,1.14-.8,1.92-.8.27,0,2.02.53,5.27,1.57,3.24,1.05,6.37,1.57,9.38,1.57Z"/>
            <path class="cls-1" d="M519.73,44.26c-.91,1.01-2.44,1.56-4.58,1.62v1.7h26.36v-1.7c-2.21-.11-3.75-.66-4.63-1.66-.88-.99-1.32-2.68-1.32-5.07V4.11h3.01c3.12,0,5.42.7,6.91,2.09,1.48,1.4,2.38,3.71,2.69,6.94h1.64V1.14h-42.94v12h1.71c.31-3.23,1.2-5.54,2.66-6.94,1.46-1.39,3.75-2.09,6.87-2.09h3.01v35.05c0,2.39-.46,4.09-1.37,5.1Z"/>
            <path class="cls-1" d="M570.77,13.14h1.71c.31-3.23,1.2-5.54,2.66-6.94,1.46-1.39,3.75-2.09,6.87-2.09h3.01v35.05c0,2.39-.46,4.09-1.37,5.1-.91,1.01-2.44,1.56-4.58,1.62v1.7h26.36v-1.7c-2.21-.11-3.75-.66-4.63-1.66-.88-.99-1.32-2.68-1.32-5.07V4.11h3.01c3.12,0,5.42.7,6.91,2.09,1.48,1.4,2.38,3.71,2.69,6.94h1.64V1.14h-42.94v12Z"/>
            <path class="cls-1" d="M641.66,48.7c7.8,0,14-2.2,18.6-6.59,4.59-4.39,6.89-10.3,6.89-17.73s-2.29-13.39-6.87-17.76c-4.58-4.37-10.79-6.56-18.61-6.56s-13.99,2.19-18.55,6.56-6.84,10.29-6.84,17.76,2.28,13.33,6.86,17.73c4.57,4.39,10.75,6.59,18.53,6.59ZM633.93,8.43c1.69-3.48,4.27-5.22,7.73-5.22s6.17,1.77,7.83,5.32c1.65,3.54,2.48,9.14,2.48,16.79,0,6.69-.86,11.74-2.59,15.13-1.73,3.4-4.3,5.1-7.71,5.1s-6.03-1.75-7.73-5.25c-1.7-3.5-2.54-8.81-2.54-15.92s.85-12.48,2.54-15.95Z"/>
            <path class="cls-1" d="M705.86,46.09c2.32-1.16,4.09-2.68,5.3-4.56,1.21-1.88,1.82-4.04,1.82-6.47,0-3.1-.87-5.67-2.61-7.71-1.74-2.04-4.29-3.48-7.66-4.33,2.79-.69,4.91-1.93,6.37-3.71,1.46-1.78,2.19-4.05,2.19-6.79,0-3.77-1.4-6.6-4.2-8.51-2.8-1.91-6.97-2.86-12.53-2.86h-25.75v1.7c2.16.09,3.7.64,4.6,1.64s1.35,2.7,1.35,5.08v29.6c0,2.39-.45,4.09-1.35,5.1s-2.44,1.56-4.6,1.62v1.7h26.42c2.65,0,4.82-.12,6.51-.37,1.68-.24,3.06-.62,4.13-1.14ZM688.87,3.81c2.65,0,4.67.78,6.04,2.34s2.06,3.85,2.06,6.86-.66,5.22-1.97,6.77c-1.32,1.55-3.24,2.33-5.79,2.33h-.33V3.81ZM696.83,42.42c-1.09,1.8-2.54,2.69-4.35,2.69-1.2,0-2.11-.48-2.71-1.45-.6-.97-.9-2.45-.9-4.43v-14.51h.4c2.81,0,5.04.95,6.71,2.84s2.49,4.44,2.49,7.62-.55,5.45-1.64,7.24Z"/>
            <path class="cls-1" d="M712.97,47.59h14.05v-1.7h-.64c-1.6,0-2.77-.27-3.49-.8-.73-.54-1.09-1.39-1.09-2.58,0-.36.04-.74.13-1.17.09-.42.22-.89.4-1.4l2.74-7.13h12.14l3.01,8.3c.16.38.27.76.35,1.14.08.38.12.75.12,1.1,0,1-.33,1.68-.99,2.02-.66.35-2.2.52-4.63.52v1.7h24.52v-1.7c-1.03,0-1.85-.26-2.48-.79-.62-.52-1.24-1.54-1.84-3.06l-16.09-40.9h-5.12l-15.99,40.23c-.62,1.56-1.35,2.71-2.17,3.43-.83.72-1.81,1.09-2.94,1.09v1.7ZM731.27,16.82l4.85,13.11h-9.93l5.08-13.11Z"/>
            <path class="cls-1" d="M791.92,42.44c-2.31,1.43-4.71,2.14-7.21,2.14-3.95,0-6.93-1.77-8.96-5.3-2.03-3.53-3.04-8.73-3.04-15.6s1.03-11.57,3.09-14.97,5.08-5.1,9.05-5.1c3.28,0,6,1.02,8.16,3.08s3.56,4.93,4.18,8.63h1.77V.4h-1.77c-.27.98-.58,1.65-.94,2.01-.36.36-.87.54-1.54.54-.2,0-1.76-.49-4.68-1.47-2.92-.98-5.89-1.47-8.9-1.47-7.05,0-12.79,2.22-17.22,6.67-4.44,4.45-6.66,10.23-6.66,17.34,0,3.77.61,7.22,1.84,10.35,1.23,3.13,3.03,5.83,5.42,8.08,2.14,2.1,4.56,3.67,7.27,4.73s5.65,1.59,8.81,1.59c4.26,0,8.08-.93,11.47-2.78,3.39-1.85,6.21-4.56,8.46-8.13l-2.27-1.64c-1.92,2.72-4.03,4.79-6.34,6.22Z"/>
            <path class="cls-1" d="M837.84,42.44c-2.31,1.43-4.71,2.14-7.21,2.14-3.95,0-6.93-1.77-8.96-5.3-2.03-3.53-3.04-8.73-3.04-15.6s1.03-11.57,3.09-14.97,5.08-5.1,9.05-5.1c3.28,0,6,1.02,8.16,3.08s3.56,4.93,4.18,8.63h1.77V.4h-1.77c-.27.98-.58,1.65-.94,2.01-.36.36-.87.54-1.54.54-.2,0-1.76-.49-4.68-1.47-2.92-.98-5.89-1.47-8.9-1.47-7.05,0-12.79,2.22-17.22,6.67-4.44,4.45-6.66,10.23-6.66,17.34,0,3.77.61,7.22,1.84,10.35,1.23,3.13,3.03,5.83,5.42,8.08,2.14,2.1,4.56,3.67,7.27,4.73s5.65,1.59,8.81,1.59c4.26,0,8.08-.93,11.47-2.78,3.39-1.85,6.21-4.56,8.46-8.13l-2.27-1.64c-1.92,2.72-4.03,4.79-6.34,6.22Z"/>
            <path class="cls-1" d="M893.13,6.62c-4.58-4.37-10.79-6.56-18.61-6.56s-13.99,2.19-18.55,6.56-6.84,10.29-6.84,17.76,2.28,13.33,6.86,17.73c4.57,4.39,10.75,6.59,18.53,6.59s14-2.2,18.6-6.59c4.59-4.39,6.89-10.3,6.89-17.73s-2.29-13.39-6.87-17.76ZM882.22,40.45c-1.73,3.4-4.3,5.1-7.71,5.1s-6.03-1.75-7.73-5.25c-1.7-3.5-2.54-8.81-2.54-15.92s.85-12.48,2.54-15.95c1.69-3.48,4.27-5.22,7.73-5.22s6.17,1.77,7.83,5.32c1.65,3.54,2.48,9.14,2.48,16.79,0,6.69-.86,11.74-2.59,15.13Z"/>
            <path class="cls-1" d="M304.39,75.82c.66-.61,2-.96,4.02-1.04l.02-1.04h-15.53v1.04c1.96.05,3.28.38,3.97,1.01.69.63,1.04,1.82,1.04,3.57v22.9c0,1.8-.34,3-1.01,3.6s-2.01.93-4,.97v1.04h15.53l-.02-1.04c-1.97-.05-3.3-.38-3.98-1-.68-.62-1.02-1.81-1.02-3.58v-22.9c0-1.75.33-2.93.99-3.54Z"/>
            <path class="cls-1" d="M339.74,74.78c2.02.13,3.34.47,3.96,1.01.62.55.93,1.77.93,3.66v18.54l-20.2-24.25h-8.79v1.04c1.08.09,2,.42,2.78.96.78.55,1.5,1.39,2.16,2.53v23.87c0,1.89-.31,3.11-.94,3.66s-1.96.89-4,1.04v1.04h12.28v-1.04c-2.04-.14-3.37-.49-4-1.04s-.94-1.77-.94-3.66v-21.79l23.05,27.52h1.04v-28.41c0-1.89.31-3.12.94-3.66.63-.54,1.95-.88,3.97-1.01v-1.04h-12.23v1.04Z"/>
            <path class="cls-1" d="M358.47,82.51h1.04c.29-2.65,1.02-4.44,2.19-5.38s3.4-1.41,6.7-1.41h.84c.99,0,1.6.07,1.8.22.21.14.31.58.31,1.3v24.37c0,2.2-.33,3.62-.97,4.26-.65.64-2.05.96-4.2.96v1.04h15.85l-.02-1.04c-2.1-.05-3.5-.35-4.18-.91s-1.02-2.06-1.02-4.5v-24.18c0-.67.1-1.1.3-1.26.2-.17.87-.25,2.01-.25,3.89,0,6.38.46,7.46,1.39,1.08.92,1.76,2.72,2.03,5.41h1.08v-8.77h-30.92l-.29,8.77Z"/>
            <path class="cls-1" d="M424.21,104.36c-1.44.92-3.77,1.39-7,1.39h-7.97c-.96,0-1.61-.19-1.94-.57-.33-.38-.49-1.19-.49-2.44v-10.21c0-.72.1-1.18.3-1.36.2-.19.63-.28,1.29-.28h6.84c2.66,0,4.4.34,5.19,1.02s1.26,2,1.39,3.96h1.04v-11.73h-1.04c-.1,1.86-.55,3.13-1.36,3.79-.81.67-2.55,1-5.21,1h-6.79c-.74,0-1.2-.1-1.37-.29-.18-.19-.27-.64-.27-1.35v-9.17c0-1.09.15-1.76.46-2.02.3-.26.98-.38,2.02-.38h8.62c2.44,0,4.14.38,5.09,1.16.95.77,1.61,2.24,1.96,4.41h1.04l-.46-7.54h-29.19v1.01c2.04.1,3.39.45,4.05,1.05.66.6.99,1.79.99,3.55v22.95c0,1.8-.33,2.99-1,3.58-.67.59-2,.9-4.01.95l-.02,1.04h29.88l2.67-8.38-.94-.46c-1.08,2.63-2.33,4.41-3.77,5.33Z"/>
            <path class="cls-1" d="M465.62,103.28c-2.17-2.27-5.47-6.27-9.92-11.98,2.76-.64,4.86-1.7,6.28-3.18s2.14-3.33,2.14-5.56c0-2.86-1.01-5.04-3.03-6.55-2.02-1.51-4.95-2.26-8.79-2.26h-17.31v1.04c2.07.05,3.45.36,4.14.94s1.04,1.69,1.04,3.35v22.93c0,1.85-.33,3.12-.99,3.81-.66.69-1.85,1.04-3.56,1.04h-.63v1.04h15.77v-1.04h-.43c-1.86,0-3.14-.35-3.84-1.04s-1.05-1.96-1.05-3.81v-8.43c0-.45.1-.77.3-.95.2-.19.54-.28,1.02-.28h3.11c2.15,2.91,4.29,5.65,6.42,8.24,2.13,2.58,4.25,5.02,6.37,7.29h7.73v-1.04c-1.01-.1-2.6-1.28-4.77-3.55ZM446.77,90.55c-.47,0-.8-.1-1.01-.29-.21-.19-.31-.52-.31-.99v-11.01c0-1.14.19-1.87.57-2.2.38-.33,1.32-.49,2.83-.49,3.34,0,5.78.58,7.32,1.73s2.31,2.98,2.31,5.47c0,2.71-.92,4.69-2.77,5.93-1.85,1.24-4.82,1.85-8.93,1.85Z"/>
            <path class="cls-1" d="M501.25,74.78c2.02.13,3.34.47,3.96,1.01.62.55.93,1.77.93,3.66v18.54l-20.2-24.25h-8.79v1.04c1.08.09,2,.42,2.78.96.78.55,1.5,1.39,2.16,2.53v23.87c0,1.89-.31,3.11-.94,3.66s-1.96.89-4,1.04v1.04h12.28v-1.04c-2.04-.14-3.37-.49-4-1.04s-.94-1.77-.94-3.66v-21.79l23.05,27.52h1.04v-28.41c0-1.89.31-3.12.94-3.66.63-.54,1.95-.88,3.97-1.01v-1.04h-12.23v1.04Z"/>
            <path class="cls-1" d="M552.91,106.04c-.37-.31-.73-.71-1.07-1.22-.35-.51-.68-1.12-1-1.84l-13.58-29.84h-1.18l-13.99,29.31c-.8,1.69-1.57,2.83-2.3,3.44-.73.61-1.64.92-2.73.94v1.04h11.2v-1.04h-.31c-1.27,0-2.2-.17-2.79-.5-.59-.34-.89-.86-.89-1.57,0-.31.06-.68.19-1.13.13-.45.33-.98.6-1.59l2.41-5.42h14.59l2.87,6.45c.11.26.2.51.25.77.06.26.08.51.08.77,0,.79-.27,1.35-.82,1.68s-1.53.51-2.96.54v1.04h14.23v-.99c-.66,0-1.2-.07-1.64-.19-.43-.13-.82-.35-1.16-.65ZM528.25,94.65l6.74-14.3,6.26,14.3h-13Z"/>
            <path class="cls-1" d="M557.78,82.51h1.04c.29-2.65,1.02-4.44,2.19-5.38s3.4-1.41,6.7-1.41h.84c.99,0,1.6.07,1.8.22.21.14.31.58.31,1.3v24.37c0,2.2-.33,3.62-.97,4.26-.65.64-2.05.96-4.2.96v1.04h15.85l-.02-1.04c-2.1-.05-3.5-.35-4.18-.91s-1.02-2.06-1.02-4.5v-24.18c0-.67.1-1.1.3-1.26.2-.17.87-.25,2.01-.25,3.89,0,6.38.46,7.46,1.39,1.08.92,1.76,2.72,2.03,5.41h1.08v-8.77h-30.92l-.29,8.77Z"/>
            <path class="cls-1" d="M607.41,75.82c.66-.61,2-.96,4.02-1.04l.02-1.04h-15.53v1.04c1.96.05,3.28.38,3.97,1.01.69.63,1.04,1.82,1.04,3.57v22.9c0,1.8-.34,3-1.01,3.6s-2.01.93-4,.97v1.04h15.53l-.02-1.04c-1.97-.05-3.3-.38-3.98-1-.68-.62-1.02-1.81-1.02-3.58v-22.9c0-1.75.33-2.93.99-3.54Z"/>
            <path class="cls-1" d="M635.3,73c-5.31,0-9.58,1.62-12.8,4.86s-4.84,7.55-4.84,12.93,1.61,9.72,4.84,12.98,7.49,4.89,12.8,4.89,9.6-1.63,12.83-4.89c3.23-3.26,4.84-7.59,4.84-12.98s-1.61-9.69-4.84-12.93c-3.22-3.24-7.5-4.86-12.83-4.86ZM643.9,102.47c-2.12,2.87-4.99,4.31-8.6,4.31s-6.45-1.44-8.58-4.31c-2.12-2.88-3.19-6.77-3.19-11.68s1.06-8.75,3.19-11.62,4.98-4.3,8.58-4.3,6.47,1.43,8.6,4.3,3.19,6.74,3.19,11.62-1.06,8.81-3.19,11.68Z"/>
            <path class="cls-1" d="M682.94,74.78c2.02.13,3.34.47,3.96,1.01.62.55.93,1.77.93,3.66v18.54l-20.2-24.25h-8.79v1.04c1.08.09,2,.42,2.78.96.78.55,1.5,1.39,2.16,2.53v23.87c0,1.89-.31,3.11-.94,3.66s-1.96.89-4,1.04v1.04h12.28v-1.04c-2.04-.14-3.37-.49-4-1.04s-.94-1.77-.94-3.66v-21.79l23.05,27.52h1.04v-28.41c0-1.89.31-3.12.94-3.66.63-.54,1.95-.88,3.97-1.01v-1.04h-12.23v1.04Z"/>
            <path class="cls-1" d="M734.6,106.04c-.37-.31-.73-.71-1.07-1.22-.35-.51-.68-1.12-1-1.84l-13.58-29.84h-1.18l-13.99,29.31c-.8,1.69-1.57,2.83-2.3,3.44-.73.61-1.64.92-2.73.94v1.04h11.2v-1.04h-.31c-1.27,0-2.2-.17-2.79-.5-.59-.34-.89-.86-.89-1.57,0-.31.06-.68.19-1.13.13-.45.33-.98.6-1.59l2.41-5.42h14.59l2.87,6.45c.11.26.2.51.25.77.06.26.08.51.08.77,0,.79-.27,1.35-.82,1.68s-1.53.51-2.96.54v1.04h14.23v-.99c-.66,0-1.2-.07-1.64-.19-.43-.13-.82-.35-1.16-.65ZM709.94,94.65l6.74-14.3,6.26,14.3h-13Z"/>
            <path class="cls-1" d="M769.73,104.17c-1.64,1.12-3.72,1.67-6.26,1.67h-5.9c-1.41,0-2.34-.19-2.77-.58-.43-.38-.65-1.34-.65-2.86v-22.95c0-1.75.35-2.97,1.06-3.65.71-.68,1.97-1.02,3.78-1.02h.24v-1.04h-15.53l.02,1.04c1.97.02,3.29.3,3.94.84.65.55.97,1.82.97,3.83v22.2c0,2.04-.33,3.41-.99,4.12-.66.71-1.89,1.06-3.71,1.06h-.24v1.04h28.22l2.79-8.98h-1.04c-1,2.41-2.31,4.17-3.95,5.29Z"/>
        </g>
    </g>
</svg>