<svg viewBox="0 0 765 201" fill="none" xmlns="http://www.w3.org/2000/svg">
    <path fill-rule="evenodd" clip-rule="evenodd" d="M111.142 22.0128C118.727 35.4291 126.692 60.4932 128.737 77.3817C131.041 96.405 127.825 114.863 119.394 130.997C115.159 139.102 109.962 144.991 101.655 151.098C94.0805 156.667 86.3331 160.584 73.473 165.347C63.3783 169.085 59.6759 171.521 58.7316 175.045C58.1594 177.181 58.2428 180.993 58.9522 185.101L59.5905 188.801L57.8287 188.055C53.6509 186.285 53.7524 186.374 53.434 184.185C52.7453 179.447 53.4244 169.691 54.9989 161.707C55.6676 158.316 55.9257 157.639 57.2891 155.693C61.2887 149.987 66.3212 147.238 81.0631 142.708C85.1586 141.449 90.2013 139.705 92.2688 138.833C100.367 135.416 106.929 130.306 110.899 124.324C113.229 120.813 113.521 119.638 111.473 122.007C109.798 123.947 105.022 127.534 102.077 129.065C98.1972 131.082 93.0792 132.943 84.6801 135.391C70.1941 139.613 65.1294 141.719 60.2121 145.563L57.5925 147.612L58.2789 144.568C58.6563 142.893 59.848 138.976 60.9272 135.862C63.1358 129.488 63.9118 128.301 68.4803 124.307C71.8972 121.32 80.257 116.506 86.02 114.207C88.563 113.192 92.2005 111.743 94.1032 110.987C103.846 107.116 111.234 101.423 114.944 94.9282C117.233 90.9213 117.514 90.3108 117.121 90.2055C116.922 90.152 116.514 90.58 116.215 91.1569C115.459 92.617 111.195 96.5646 108.142 98.6322C105.014 100.75 98.9877 103.426 90.8117 106.325C82.4391 109.294 76.6735 111.917 71.9876 114.887L68.0645 117.373L70.2086 112.945C73.8553 105.413 81.2625 93.3452 84.3443 89.915C86.127 87.9308 89.7917 85.4691 96.9593 81.441C106.892 75.8593 110.811 72.477 113.969 66.7603C116.701 61.817 117.027 59.9822 114.55 63.495C111.654 67.6017 105.441 72.0024 97.0401 75.8968C93.7465 77.4236 91.0141 78.6069 90.9676 78.527C90.9216 78.4467 91.8596 76.7854 93.0527 74.835C95.9855 70.0397 100.144 61.6172 102.145 56.4217C105.031 48.9274 106.945 38.4831 106.113 34.7751C105.887 33.7684 105.691 34.1827 104.226 38.7515C101.595 46.955 98.0039 54.5454 91.5522 65.5415C88.4657 70.8023 85.1847 76.1833 84.175 77.641C83.7228 78.2945 82.7035 63.5206 82.8216 58.0241C82.8704 55.7588 83.158 52.5322 83.4611 50.8541C83.7641 49.176 83.8609 47.8486 83.6767 47.904C82.9877 48.1108 80.2959 55.4828 79.4561 59.4624C78.4426 64.2649 78.1752 68.2998 78.4347 74.8631C78.5912 78.8138 78.4498 80.4591 77.6524 83.9819C76.6909 88.2288 76.6411 88.3389 73.4668 93.2166C69.6973 99.0094 66.4245 104.613 66.0943 105.841C65.9653 106.319 65.6862 106.664 65.4737 106.607C65.2612 106.55 65.148 106.277 65.2222 106C65.4681 105.082 64.0457 98.6442 62.1432 92.064C61.1113 88.495 59.9445 84.0163 59.5504 82.1116C58.6598 77.8063 58.2292 70.8492 58.6653 67.8107C58.8464 66.5489 58.8612 65.4812 58.6985 65.4377C58.5355 65.394 57.8543 66.936 57.1849 68.8639C54.6765 76.0849 54.6072 84.5799 56.9834 93.6255C57.5402 95.7465 58.3719 99.5949 58.8312 102.177C60.5488 111.841 60.2424 116.922 57.5767 122.961C56.6857 124.981 55.134 129.255 54.1285 132.461C53.123 135.666 52.1977 138.259 52.072 138.222C51.9463 138.186 51.7057 137.422 51.5372 136.526C51.0521 133.942 48.5222 127.541 44.6987 119.225C40.2961 109.65 38.3441 104.677 37.085 99.8285C36.0082 95.6833 35.3578 90.9345 35.5746 88.7962C35.849 86.0872 35.1142 86.7615 34.5954 89.6946C33.1075 98.107 33.7116 105.236 36.7048 114.586C37.3934 116.736 39.8663 123.016 42.2008 128.54C49.2035 145.11 49.6059 146.964 48.4097 157.13C47.9547 160.995 47.4435 165.705 47.2739 167.596C46.8678 172.121 46.8921 172.078 45.94 169.922C44.7546 167.238 42.8333 164.178 37.5808 156.609C18.994 129.826 14.8905 111.934 22.4523 90.6488C26.4712 79.3363 31.1627 72.6294 41.4784 63.4507C47.3834 58.1966 50.6394 56.0836 67.3899 46.6348C84.425 37.025 91.5202 32.695 96.3351 28.9699C99.9563 26.168 104.044 22.1737 106.272 19.2579C107.103 18.1708 107.964 17.3295 108.186 17.3889C108.408 17.4484 109.738 19.5289 111.142 22.0128Z" fill="#B08951"/>
    <path d="M111.142 22.0128C118.727 35.4291 126.692 60.4932 128.737 77.3817C131.041 96.405 127.825 114.863 119.394 130.997C115.159 139.102 109.962 144.991 101.655 151.098C94.0805 156.667 86.3331 160.584 73.473 165.347C63.3783 169.085 59.6759 171.521 58.7316 175.045C58.1594 177.181 58.2428 180.993 58.9522 185.101L59.5905 188.801L57.8287 188.055C53.6509 186.285 53.7524 186.374 53.434 184.185C52.7453 179.447 53.4244 169.691 54.9989 161.707C55.6676 158.316 55.9257 157.639 57.2891 155.693C61.2887 149.987 66.3212 147.238 81.0631 142.708C85.1586 141.449 90.2013 139.705 92.2688 138.833C100.367 135.416 106.929 130.306 110.899 124.324C113.229 120.813 113.521 119.638 111.473 122.007C109.798 123.947 105.022 127.534 102.077 129.065C98.1972 131.082 93.0792 132.943 84.6801 135.391C70.1941 139.613 65.1294 141.719 60.2121 145.563L57.5925 147.612L58.2789 144.568C58.6563 142.893 59.848 138.976 60.9272 135.862C63.1358 129.488 63.9118 128.301 68.4803 124.307C71.8972 121.32 80.257 116.506 86.02 114.207C88.563 113.192 92.2005 111.743 94.1032 110.987C103.846 107.116 111.234 101.423 114.944 94.9282C117.233 90.9213 117.514 90.3108 117.121 90.2055C116.922 90.152 116.514 90.58 116.215 91.1569C115.459 92.617 111.195 96.5646 108.142 98.6322C105.014 100.75 98.9877 103.426 90.8117 106.325C82.4391 109.294 76.6735 111.917 71.9876 114.887L68.0645 117.373L70.2086 112.945C73.8553 105.413 81.2625 93.3452 84.3443 89.915C86.127 87.9308 89.7917 85.4691 96.9593 81.441C106.892 75.8593 110.811 72.477 113.969 66.7603C116.701 61.817 117.027 59.9822 114.55 63.495C111.654 67.6017 105.441 72.0024 97.0401 75.8968C93.7465 77.4236 91.0141 78.6069 90.9676 78.527C90.9216 78.4467 91.8596 76.7854 93.0527 74.835C95.9855 70.0397 100.144 61.6172 102.145 56.4217C105.031 48.9274 106.945 38.4831 106.113 34.7751C105.887 33.7684 105.691 34.1827 104.226 38.7515C101.595 46.955 98.0039 54.5454 91.5522 65.5415C88.4657 70.8023 85.1847 76.1833 84.175 77.641C83.7228 78.2945 82.7035 63.5206 82.8216 58.0241C82.8704 55.7588 83.158 52.5322 83.4611 50.8541C83.7641 49.176 83.8609 47.8486 83.6767 47.904C82.9877 48.1108 80.2959 55.4828 79.4561 59.4624C78.4426 64.2649 78.1752 68.2998 78.4347 74.8631C78.5912 78.8138 78.4498 80.4591 77.6524 83.9819C76.6909 88.2288 76.6411 88.3389 73.4668 93.2166C69.6973 99.0094 66.4245 104.613 66.0943 105.841C65.9653 106.319 65.6862 106.664 65.4737 106.607C65.2612 106.55 65.148 106.277 65.2222 106C65.4681 105.082 64.0457 98.6442 62.1432 92.064C61.1113 88.495 59.9445 84.0163 59.5504 82.1116C58.6598 77.8063 58.2292 70.8492 58.6653 67.8107C58.8464 66.5489 58.8612 65.4812 58.6985 65.4377C58.5355 65.394 57.8543 66.936 57.1849 68.8639C54.6765 76.0849 54.6072 84.5799 56.9834 93.6255C57.5402 95.7465 58.3719 99.5949 58.8312 102.177C60.5488 111.841 60.2424 116.922 57.5767 122.961C56.6857 124.981 55.134 129.255 54.1285 132.461C53.123 135.666 52.1977 138.259 52.072 138.222C51.9463 138.186 51.7057 137.422 51.5372 136.526C51.0521 133.942 48.5222 127.541 44.6987 119.225C40.2961 109.65 38.3441 104.677 37.085 99.8285C36.0082 95.6833 35.3578 90.9345 35.5746 88.7962C35.849 86.0872 35.1142 86.7615 34.5954 89.6946C33.1075 98.107 33.7116 105.236 36.7048 114.586C37.3934 116.736 39.8663 123.016 42.2008 128.54C49.2035 145.11 49.6059 146.964 48.4097 157.13C47.9547 160.995 47.4435 165.705 47.2739 167.596C46.8678 172.121 46.8921 172.078 45.94 169.922C44.7546 167.238 42.8333 164.178 37.5808 156.609C18.994 129.826 14.8905 111.934 22.4523 90.6488C26.4712 79.3363 31.1627 72.6294 41.4784 63.4507C47.3834 58.1966 50.6394 56.0836 67.3899 46.6348C84.425 37.025 91.5202 32.695 96.3351 28.9699C99.9563 26.168 104.044 22.1737 106.272 19.2579C107.103 18.1708 107.964 17.3295 108.186 17.3889C108.408 17.4484 109.738 19.5289 111.142 22.0128Z" fill="#B08951"/>
    <path d="M181.904 69.7806H200.962V75.7875H181.904V69.7806ZM182.504 90.4224H175.405V52.1969H203.31V58.1491H182.504V90.4224ZM217.442 90.4224V52.1969H224.541V90.4224H217.442ZM242.147 90.4224V52.1969H247.99L271.963 81.6305H269.068V52.1969H276.113V90.4224H270.27L246.297 60.9887H249.191V90.4224H242.147ZM300.175 68.0877H319.179V73.9308H300.175V68.0877ZM300.721 84.4701H322.291V90.4224H293.622V52.1969H321.527V58.1491H300.721V84.4701ZM349.322 90.9684C346.337 90.9684 343.479 90.5498 340.749 89.7125C338.018 88.8387 335.852 87.7284 334.25 86.3814L336.708 80.866C338.237 82.0674 340.13 83.0685 342.387 83.8694C344.644 84.6703 346.956 85.0708 349.322 85.0708C351.324 85.0708 352.944 84.8524 354.182 84.4155C355.42 83.9786 356.33 83.3962 356.912 82.668C357.495 81.9035 357.786 81.048 357.786 80.1015C357.786 78.9365 357.368 78.0082 356.53 77.3165C355.693 76.5884 354.601 76.0241 353.254 75.6236C351.943 75.1868 350.469 74.7863 348.831 74.4223C347.229 74.0582 345.609 73.6395 343.97 73.1663C342.369 72.6566 340.894 72.0195 339.547 71.255C338.237 70.4541 337.163 69.3983 336.325 68.0877C335.488 66.7772 335.069 65.1025 335.069 63.0638C335.069 60.9887 335.615 59.0957 336.708 57.3846C337.836 55.6372 339.529 54.2538 341.786 53.2344C344.08 52.1787 346.974 51.6508 350.469 51.6508C352.762 51.6508 355.038 51.942 357.295 52.5245C359.552 53.107 361.518 53.9443 363.192 55.0365L360.953 60.5519C359.242 59.5325 357.477 58.7862 355.656 58.3129C353.836 57.8033 352.089 57.5484 350.414 57.5484C348.448 57.5484 346.846 57.7851 345.609 58.2583C344.407 58.7316 343.515 59.3505 342.933 60.115C342.387 60.8795 342.114 61.7532 342.114 62.7362C342.114 63.9011 342.514 64.8477 343.315 65.5758C344.152 66.2675 345.226 66.8136 346.537 67.214C347.884 67.6145 349.377 68.0149 351.015 68.4154C352.653 68.7794 354.273 69.1981 355.875 69.6714C357.513 70.1446 358.988 70.7635 360.298 71.528C361.645 72.2926 362.719 73.3301 363.52 74.6407C364.357 75.9513 364.776 77.6077 364.776 79.61C364.776 81.6487 364.212 83.5418 363.083 85.2892C361.991 87.0003 360.298 88.3837 358.005 89.4394C355.711 90.4588 352.817 90.9684 349.322 90.9684ZM386.303 90.4224V58.2037H373.634V52.1969H406.071V58.2037H393.402V90.4224H386.303ZM448.778 90.4224V58.2037H436.109V52.1969H468.546V58.2037H455.877V90.4224H448.778ZM498.519 90.9684C495.534 90.9684 492.785 90.477 490.273 89.494C487.761 88.5111 485.577 87.1459 483.72 85.3984C481.863 83.6146 480.425 81.5395 479.406 79.1731C478.387 76.7704 477.877 74.1492 477.877 71.3096C477.877 68.47 478.387 65.867 479.406 63.5007C480.425 61.0979 481.863 59.0228 483.72 57.2754C485.577 55.4915 487.761 54.1081 490.273 53.1252C492.785 52.1423 495.515 51.6508 498.464 51.6508C501.449 51.6508 504.18 52.1423 506.655 53.1252C509.167 54.1081 511.352 55.4915 513.208 57.2754C515.065 59.0228 516.503 61.0979 517.522 63.5007C518.542 65.867 519.051 68.47 519.051 71.3096C519.051 74.1492 518.542 76.7704 517.522 79.1731C516.503 81.5759 515.065 83.651 513.208 85.3984C511.352 87.1459 509.167 88.5111 506.655 89.494C504.18 90.477 501.468 90.9684 498.519 90.9684ZM498.464 84.7431C500.394 84.7431 502.178 84.4155 503.816 83.7602C505.454 83.1049 506.874 82.1766 508.075 80.9752C509.277 79.7374 510.205 78.3176 510.86 76.7158C511.552 75.0776 511.898 73.2755 511.898 71.3096C511.898 69.3437 511.552 67.5599 510.86 65.958C510.205 64.3198 509.277 62.9 508.075 61.6986C506.874 60.4609 505.454 59.5143 503.816 58.859C502.178 58.2037 500.394 57.8761 498.464 57.8761C496.535 57.8761 494.751 58.2037 493.113 58.859C491.511 59.5143 490.091 60.4609 488.853 61.6986C487.652 62.9 486.705 64.3198 486.014 65.958C485.358 67.5599 485.031 69.3437 485.031 71.3096C485.031 73.2391 485.358 75.0229 486.014 76.6612C486.705 78.2994 487.652 79.7374 488.853 80.9752C490.055 82.1766 491.474 83.1049 493.113 83.7602C494.751 84.4155 496.535 84.7431 498.464 84.7431ZM533.843 90.4224V52.1969H551.754C556.341 52.1969 559.836 53.107 562.239 54.9273C564.642 56.7111 565.843 59.1139 565.843 62.1355C565.843 64.1742 565.37 65.9216 564.423 67.3778C563.477 68.7977 562.203 69.908 560.601 70.7089C559.035 71.4734 557.324 71.8557 555.468 71.8557L556.451 69.8898C558.598 69.8898 560.528 70.2903 562.239 71.0912C563.95 71.8557 565.297 72.9843 566.28 74.4769C567.299 75.9695 567.809 77.8262 567.809 80.0469C567.809 83.3233 566.553 85.8717 564.041 87.692C561.529 89.5122 557.798 90.4224 552.846 90.4224H533.843ZM540.942 84.8524H552.41C555.067 84.8524 557.106 84.4155 558.526 83.5418C559.945 82.668 560.655 81.2664 560.655 79.337C560.655 77.4439 559.945 76.0605 558.526 75.1868C557.106 74.2766 555.067 73.8216 552.41 73.8216H540.396V68.3062H550.99C553.465 68.3062 555.358 67.8693 556.669 66.9956C558.016 66.1219 558.689 64.8113 558.689 63.0638C558.689 61.28 558.016 59.9512 556.669 59.0775C555.358 58.2037 553.465 57.7669 550.99 57.7669H540.942V84.8524ZM577.246 90.4224L594.447 52.1969H601.437L618.693 90.4224H611.267L596.468 55.9648H599.307L584.563 90.4224H577.246ZM585.164 81.5759L587.075 76.0059H607.717L609.628 81.5759H585.164ZM647.981 90.9684C645.069 90.9684 642.356 90.4952 639.844 89.5486C637.369 88.5657 635.203 87.2005 633.346 85.453C631.526 83.6692 630.106 81.5759 629.087 79.1731C628.067 76.7704 627.558 74.1492 627.558 71.3096C627.558 68.47 628.067 65.8488 629.087 63.4461C630.106 61.0433 631.544 58.9682 633.401 57.2208C635.257 55.4369 637.424 54.0717 639.899 53.1252C642.375 52.1423 645.087 51.6508 648.036 51.6508C651.167 51.6508 654.024 52.1969 656.609 53.289C659.194 54.3448 661.378 55.9284 663.162 58.0399L658.575 62.3539C657.192 60.8613 655.644 59.7509 653.933 59.0228C652.222 58.2583 650.366 57.8761 648.363 57.8761C646.361 57.8761 644.523 58.2037 642.848 58.859C641.21 59.5143 639.772 60.4426 638.534 61.644C637.333 62.8454 636.386 64.2652 635.694 65.9034C635.039 67.5417 634.711 69.3437 634.711 71.3096C634.711 73.2755 635.039 75.0776 635.694 76.7158C636.386 78.354 637.333 79.7738 638.534 80.9752C639.772 82.1766 641.21 83.1049 642.848 83.7602C644.523 84.4155 646.361 84.7431 648.363 84.7431C650.366 84.7431 652.222 84.3791 653.933 83.651C655.644 82.8865 657.192 81.7397 658.575 80.2107L663.162 84.5793C661.378 86.6544 659.194 88.238 656.609 89.3302C654.024 90.4224 651.148 90.9684 647.981 90.9684ZM694.124 90.9684C691.211 90.9684 688.499 90.4952 685.987 89.5486C683.512 88.5657 681.346 87.2005 679.489 85.453C677.669 83.6692 676.249 81.5759 675.23 79.1731C674.21 76.7704 673.701 74.1492 673.701 71.3096C673.701 68.47 674.21 65.8488 675.23 63.4461C676.249 61.0433 677.687 58.9682 679.544 57.2208C681.4 55.4369 683.566 54.0717 686.042 53.1252C688.517 52.1423 691.23 51.6508 694.178 51.6508C697.309 51.6508 700.167 52.1969 702.752 53.289C705.337 54.3448 707.521 55.9284 709.305 58.0399L704.718 62.3539C703.334 60.8613 701.787 59.7509 700.076 59.0228C698.365 58.2583 696.508 57.8761 694.506 57.8761C692.504 57.8761 690.665 58.2037 688.991 58.859C687.352 59.5143 685.914 60.4426 684.677 61.644C683.475 62.8454 682.529 64.2652 681.837 65.9034C681.182 67.5417 680.854 69.3437 680.854 71.3096C680.854 73.2755 681.182 75.0776 681.837 76.7158C682.529 78.354 683.475 79.7738 684.677 80.9752C685.914 82.1766 687.352 83.1049 688.991 83.7602C690.665 84.4155 692.504 84.7431 694.506 84.7431C696.508 84.7431 698.365 84.3791 700.076 83.651C701.787 82.8865 703.334 81.7397 704.718 80.2107L709.305 84.5793C707.521 86.6544 705.337 88.238 702.752 89.3302C700.167 90.4224 697.291 90.9684 694.124 90.9684ZM740.485 90.9684C737.5 90.9684 734.751 90.477 732.239 89.494C729.727 88.5111 727.543 87.1459 725.686 85.3984C723.83 83.6146 722.392 81.5395 721.372 79.1731C720.353 76.7704 719.843 74.1492 719.843 71.3096C719.843 68.47 720.353 65.867 721.372 63.5007C722.392 61.0979 723.83 59.0228 725.686 57.2754C727.543 55.4915 729.727 54.1081 732.239 53.1252C734.751 52.1423 737.482 51.6508 740.43 51.6508C743.416 51.6508 746.146 52.1423 748.622 53.1252C751.134 54.1081 753.318 55.4915 755.175 57.2754C757.031 59.0228 758.469 61.0979 759.489 63.5007C760.508 65.867 761.018 68.47 761.018 71.3096C761.018 74.1492 760.508 76.7704 759.489 79.1731C758.469 81.5759 757.031 83.651 755.175 85.3984C753.318 87.1459 751.134 88.5111 748.622 89.494C746.146 90.477 743.434 90.9684 740.485 90.9684ZM740.43 84.7431C742.36 84.7431 744.144 84.4155 745.782 83.7602C747.42 83.1049 748.84 82.1766 750.041 80.9752C751.243 79.7374 752.171 78.3176 752.826 76.7158C753.518 75.0776 753.864 73.2755 753.864 71.3096C753.864 69.3437 753.518 67.5599 752.826 65.958C752.171 64.3198 751.243 62.9 750.041 61.6986C748.84 60.4609 747.42 59.5143 745.782 58.859C744.144 58.2037 742.36 57.8761 740.43 57.8761C738.501 57.8761 736.717 58.2037 735.079 58.859C733.477 59.5143 732.057 60.4609 730.819 61.6986C729.618 62.9 728.672 64.3198 727.98 65.958C727.325 67.5599 726.997 69.3437 726.997 71.3096C726.997 73.2391 727.325 75.0229 727.98 76.6612C728.672 78.2994 729.618 79.7374 730.819 80.9752C732.021 82.1766 733.441 83.1049 735.079 83.7602C736.717 84.4155 738.501 84.7431 740.43 84.7431Z" fill="black"/>
    <path d="M175.152 148.805V120.808H177.191V148.805H175.152ZM192.27 148.805V120.808H193.99L213.948 146.285H213.028V120.808H215.068V148.805H213.388L193.39 123.327H194.31V148.805H192.27ZM235.527 148.805V122.648H225.448V120.808H247.646V122.648H237.567V148.805H235.527ZM259.827 133.687H274.985V135.486H259.827V133.687ZM260.067 146.965H277.345V148.805H258.027V120.808H276.745V122.648H260.067V146.965ZM290.104 148.805V120.808H300.144C302.49 120.808 304.503 121.181 306.183 121.928C307.863 122.674 309.156 123.754 310.063 125.167C310.969 126.554 311.423 128.247 311.423 130.247C311.423 132.193 310.969 133.873 310.063 135.286C309.156 136.673 307.863 137.753 306.183 138.526C304.503 139.273 302.49 139.646 300.144 139.646H291.224L292.144 138.686V148.805H290.104ZM309.543 148.805L302.263 138.646H304.583L311.863 148.805H309.543ZM292.144 138.806L291.224 137.846H300.144C303.157 137.846 305.436 137.18 306.983 135.846C308.556 134.513 309.343 132.647 309.343 130.247C309.343 127.82 308.556 125.954 306.983 124.647C305.436 123.314 303.157 122.648 300.144 122.648H291.224L292.144 121.648V138.806ZM324.213 148.805V120.808H325.933L345.891 146.285H344.971V120.808H347.011V148.805H345.331L325.333 123.327H326.253V148.805H324.213ZM357.431 148.805L370.31 120.808H372.35L385.229 148.805H383.029L370.87 122.088H371.75L359.631 148.805H357.431ZM362.151 140.926L362.831 139.206H379.589L380.269 140.926H362.151ZM399.587 148.805V122.648H389.508V120.808H411.706V122.648H401.627V148.805H399.587ZM422.087 148.805V120.808H424.127V148.805H422.087ZM451.084 149.005C449.004 149.005 447.071 148.659 445.285 147.965C443.525 147.245 441.978 146.245 440.645 144.966C439.338 143.659 438.325 142.152 437.605 140.446C436.885 138.713 436.525 136.833 436.525 134.806C436.525 132.78 436.885 130.913 437.605 129.207C438.325 127.474 439.338 125.967 440.645 124.687C441.978 123.381 443.525 122.381 445.285 121.688C447.071 120.968 449.004 120.608 451.084 120.608C453.164 120.608 455.084 120.968 456.844 121.688C458.63 122.381 460.177 123.367 461.483 124.647C462.79 125.927 463.803 127.434 464.523 129.167C465.269 130.873 465.643 132.753 465.643 134.806C465.643 136.86 465.269 138.753 464.523 140.486C463.803 142.192 462.79 143.686 461.483 144.966C460.177 146.245 458.63 147.245 456.844 147.965C455.084 148.659 453.164 149.005 451.084 149.005ZM451.084 147.125C452.871 147.125 454.524 146.819 456.044 146.205C457.563 145.592 458.883 144.726 460.003 143.606C461.123 142.486 461.99 141.179 462.603 139.686C463.243 138.193 463.563 136.566 463.563 134.806C463.563 133.02 463.243 131.393 462.603 129.927C461.99 128.434 461.123 127.127 460.003 126.007C458.883 124.887 457.563 124.021 456.044 123.407C454.524 122.794 452.871 122.488 451.084 122.488C449.298 122.488 447.644 122.794 446.125 123.407C444.605 124.021 443.271 124.887 442.125 126.007C441.005 127.127 440.125 128.434 439.485 129.927C438.872 131.393 438.565 133.02 438.565 134.806C438.565 136.566 438.872 138.193 439.485 139.686C440.125 141.179 441.005 142.486 442.125 143.606C443.271 144.726 444.605 145.592 446.125 146.205C447.644 146.819 449.298 147.125 451.084 147.125ZM478.04 148.805V120.808H479.76L499.718 146.285H498.798V120.808H500.838V148.805H499.158L479.16 123.327H480.08V148.805H478.04ZM511.258 148.805L524.137 120.808H526.177L539.056 148.805H536.856L524.697 122.088H525.577L513.458 148.805H511.258ZM515.978 140.926L516.658 139.206H533.416L534.096 140.926H515.978ZM549.461 148.805V120.808H551.5V146.965H567.619V148.805H549.461ZM605.733 149.005C603.627 149.005 601.68 148.659 599.894 147.965C598.107 147.245 596.547 146.245 595.214 144.966C593.907 143.686 592.894 142.192 592.174 140.486C591.454 138.753 591.094 136.86 591.094 134.806C591.094 132.753 591.454 130.873 592.174 129.167C592.894 127.434 593.921 125.927 595.254 124.647C596.587 123.367 598.134 122.381 599.894 121.688C601.68 120.968 603.64 120.608 605.773 120.608C607.799 120.608 609.679 120.928 611.412 121.568C613.146 122.208 614.626 123.167 615.852 124.447L614.572 125.807C613.346 124.607 611.999 123.754 610.533 123.247C609.093 122.741 607.52 122.488 605.813 122.488C604 122.488 602.32 122.794 600.773 123.407C599.227 124.021 597.88 124.887 596.734 126.007C595.587 127.127 594.694 128.434 594.054 129.927C593.441 131.42 593.134 133.047 593.134 134.806C593.134 136.566 593.441 138.193 594.054 139.686C594.694 141.179 595.587 142.486 596.734 143.606C597.88 144.726 599.227 145.592 600.773 146.205C602.32 146.819 604 147.125 605.813 147.125C607.466 147.125 609.026 146.872 610.493 146.365C611.986 145.859 613.346 145.019 614.572 143.846L615.732 145.405C614.479 146.605 612.972 147.512 611.213 148.125C609.479 148.712 607.653 149.005 605.733 149.005ZM613.772 145.206V134.926H615.732V145.405L613.772 145.206ZM630.031 148.805V120.808H640.07C642.417 120.808 644.43 121.181 646.11 121.928C647.79 122.674 649.083 123.754 649.989 125.167C650.896 126.554 651.349 128.247 651.349 130.247C651.349 132.193 650.896 133.873 649.989 135.286C649.083 136.673 647.79 137.753 646.11 138.526C644.43 139.273 642.417 139.646 640.07 139.646H631.151L632.071 138.686V148.805H630.031ZM649.469 148.805L642.19 138.646H644.51L651.789 148.805H649.469ZM632.071 138.806L631.151 137.846H640.07C643.083 137.846 645.363 137.18 646.91 135.846C648.483 134.513 649.269 132.647 649.269 130.247C649.269 127.82 648.483 125.954 646.91 124.647C645.363 123.314 643.083 122.648 640.07 122.648H631.151L632.071 121.648V138.806ZM676.019 149.005C673.939 149.005 672.006 148.659 670.219 147.965C668.46 147.245 666.913 146.245 665.58 144.966C664.273 143.659 663.26 142.152 662.54 140.446C661.82 138.713 661.46 136.833 661.46 134.806C661.46 132.78 661.82 130.913 662.54 129.207C663.26 127.474 664.273 125.967 665.58 124.687C666.913 123.381 668.46 122.381 670.219 121.688C672.006 120.968 673.939 120.608 676.019 120.608C678.099 120.608 680.019 120.968 681.778 121.688C683.565 122.381 685.111 123.367 686.418 124.647C687.725 125.927 688.738 127.434 689.458 129.167C690.204 130.873 690.578 132.753 690.578 134.806C690.578 136.86 690.204 138.753 689.458 140.486C688.738 142.192 687.725 143.686 686.418 144.966C685.111 146.245 683.565 147.245 681.778 147.965C680.019 148.659 678.099 149.005 676.019 149.005ZM676.019 147.125C677.805 147.125 679.459 146.819 680.978 146.205C682.498 145.592 683.818 144.726 684.938 143.606C686.058 142.486 686.925 141.179 687.538 139.686C688.178 138.193 688.498 136.566 688.498 134.806C688.498 133.02 688.178 131.393 687.538 129.927C686.925 128.434 686.058 127.127 684.938 126.007C683.818 124.887 682.498 124.021 680.978 123.407C679.459 122.794 677.805 122.488 676.019 122.488C674.232 122.488 672.579 122.794 671.059 123.407C669.539 124.021 668.206 124.887 667.06 126.007C665.94 127.127 665.06 128.434 664.42 129.927C663.807 131.393 663.5 133.02 663.5 134.806C663.5 136.566 663.807 138.193 664.42 139.686C665.06 141.179 665.94 142.486 667.06 143.606C668.206 144.726 669.539 145.592 671.059 146.205C672.579 146.819 674.232 147.125 676.019 147.125ZM713.934 149.005C710.468 149.005 707.734 147.992 705.735 145.965C703.735 143.939 702.735 140.926 702.735 136.926V120.808H704.775V136.846C704.775 140.339 705.575 142.926 707.175 144.606C708.774 146.285 711.041 147.125 713.974 147.125C716.88 147.125 719.133 146.285 720.733 144.606C722.333 142.926 723.133 140.339 723.133 136.846V120.808H725.173V136.926C725.173 140.926 724.173 143.939 722.173 145.965C720.173 147.992 717.427 149.005 713.934 149.005ZM740.013 148.805V120.808H750.052C752.399 120.808 754.412 121.181 756.092 121.928C757.772 122.674 759.065 123.754 759.971 125.167C760.878 126.554 761.331 128.247 761.331 130.247C761.331 132.193 760.878 133.873 759.971 135.286C759.065 136.7 757.772 137.78 756.092 138.526C754.412 139.273 752.399 139.646 750.052 139.646H741.133L742.053 138.686V148.805H740.013ZM742.053 138.806L741.133 137.806H750.052C753.065 137.806 755.345 137.153 756.892 135.846C758.465 134.513 759.251 132.647 759.251 130.247C759.251 127.82 758.465 125.954 756.892 124.647C755.345 123.314 753.065 122.648 750.052 122.648H741.133L742.053 121.648V138.806Z" fill="black"/>
</svg>
